%TF.GenerationSoftware,KiCad,Pcbnew,10.0.3*%
%TF.CreationDate,2026-07-01T12:34:20+05:30*%
%TF.ProjectId,STM32f103c8t6_Bluepill,53544d33-3266-4313-9033-633874365f42,rev?*%
%TF.SameCoordinates,Original*%
%TF.FileFunction,Soldermask,Bot*%
%TF.FilePolarity,Negative*%
%FSLAX46Y46*%
G04 Gerber Fmt 4.6, Leading zero omitted, Abs format (unit mm)*
G04 Created by KiCad (PCBNEW 10.0.3) date 2026-07-01 12:34:20*
%MOMM*%
%LPD*%
G01*
G04 APERTURE LIST*
G04 Aperture macros list*
%AMRoundRect*
0 Rectangle with rounded corners*
0 $1 Rounding radius*
0 $2 $3 $4 $5 $6 $7 $8 $9 X,Y pos of 4 corners*
0 Add a 4 corners polygon primitive as box body*
4,1,4,$2,$3,$4,$5,$6,$7,$8,$9,$2,$3,0*
0 Add four circle primitives for the rounded corners*
1,1,$1+$1,$2,$3*
1,1,$1+$1,$4,$5*
1,1,$1+$1,$6,$7*
1,1,$1+$1,$8,$9*
0 Add four rect primitives between the rounded corners*
20,1,$1+$1,$2,$3,$4,$5,0*
20,1,$1+$1,$4,$5,$6,$7,0*
20,1,$1+$1,$6,$7,$8,$9,0*
20,1,$1+$1,$8,$9,$2,$3,0*%
G04 Aperture macros list end*
%ADD10C,1.250000*%
%ADD11RoundRect,0.250000X-0.600000X-0.725000X0.600000X-0.725000X0.600000X0.725000X-0.600000X0.725000X0*%
%ADD12O,1.700000X1.950000*%
%ADD13O,1.200000X1.900000*%
%ADD14C,1.450000*%
%ADD15R,2.100000X2.100000*%
%ADD16C,2.100000*%
G04 APERTURE END LIST*
D10*
%TO.C,J4*%
X175700000Y-75600000D03*
D11*
X177300000Y-74000000D03*
D12*
X179800000Y-74000000D03*
X182300000Y-74000000D03*
X184800000Y-74000000D03*
X187300000Y-74000000D03*
X189800000Y-74000000D03*
X192300000Y-74000000D03*
X194800000Y-74000000D03*
X197300000Y-74000000D03*
X199800000Y-74000000D03*
X202300000Y-74000000D03*
X204800000Y-74000000D03*
X207300000Y-74000000D03*
X209800000Y-74000000D03*
X212300000Y-74000000D03*
X214800000Y-74000000D03*
X217300000Y-74000000D03*
X219800000Y-74000000D03*
X222300000Y-74000000D03*
X224800000Y-74000000D03*
%TD*%
D10*
%TO.C,J3*%
X124000000Y-125700000D03*
D11*
X125600000Y-124100000D03*
D12*
X128100000Y-124100000D03*
X130600000Y-124100000D03*
X133100000Y-124100000D03*
X135600000Y-124100000D03*
X138100000Y-124100000D03*
X140600000Y-124100000D03*
X143100000Y-124100000D03*
X145600000Y-124100000D03*
X148100000Y-124100000D03*
X150600000Y-124100000D03*
X153100000Y-124100000D03*
X155600000Y-124100000D03*
X158100000Y-124100000D03*
X160600000Y-124100000D03*
X163100000Y-124100000D03*
X165600000Y-124100000D03*
X168100000Y-124100000D03*
X170600000Y-124100000D03*
X173100000Y-124100000D03*
%TD*%
D13*
%TO.C,P1*%
X104100000Y-126700000D03*
D14*
X105100000Y-124000000D03*
X110100000Y-124000000D03*
D13*
X111100000Y-126700000D03*
%TD*%
D15*
%TO.C,J1*%
X82400000Y-113800000D03*
D16*
X82400000Y-106300000D03*
X82400000Y-98800000D03*
X82400000Y-91300000D03*
X82400000Y-83800000D03*
X82400000Y-76300000D03*
%TD*%
M02*
