%TF.GenerationSoftware,KiCad,Pcbnew,10.0.3*%
%TF.CreationDate,2026-07-01T12:34:20+05:30*%
%TF.ProjectId,STM32f103c8t6_Bluepill,53544d33-3266-4313-9033-633874365f42,rev?*%
%TF.SameCoordinates,Original*%
%TF.FileFunction,Legend,Top*%
%TF.FilePolarity,Positive*%
%FSLAX46Y46*%
G04 Gerber Fmt 4.6, Leading zero omitted, Abs format (unit mm)*
G04 Created by KiCad (PCBNEW 10.0.3) date 2026-07-01 12:34:20*
%MOMM*%
%LPD*%
G01*
G04 APERTURE LIST*
%ADD10C,0.254000*%
%ADD11C,0.150000*%
%ADD12C,0.250000*%
%ADD13C,0.200000*%
%ADD14C,0.120000*%
%ADD15C,0.100000*%
G04 APERTURE END LIST*
D10*
X171960237Y-103374318D02*
X171960237Y-102104318D01*
X173290714Y-103253365D02*
X173230238Y-103313842D01*
X173230238Y-103313842D02*
X173048809Y-103374318D01*
X173048809Y-103374318D02*
X172927857Y-103374318D01*
X172927857Y-103374318D02*
X172746428Y-103313842D01*
X172746428Y-103313842D02*
X172625476Y-103192889D01*
X172625476Y-103192889D02*
X172564999Y-103071937D01*
X172564999Y-103071937D02*
X172504523Y-102830032D01*
X172504523Y-102830032D02*
X172504523Y-102648603D01*
X172504523Y-102648603D02*
X172564999Y-102406699D01*
X172564999Y-102406699D02*
X172625476Y-102285746D01*
X172625476Y-102285746D02*
X172746428Y-102164794D01*
X172746428Y-102164794D02*
X172927857Y-102104318D01*
X172927857Y-102104318D02*
X173048809Y-102104318D01*
X173048809Y-102104318D02*
X173230238Y-102164794D01*
X173230238Y-102164794D02*
X173290714Y-102225270D01*
X173774523Y-102225270D02*
X173834999Y-102164794D01*
X173834999Y-102164794D02*
X173955952Y-102104318D01*
X173955952Y-102104318D02*
X174258333Y-102104318D01*
X174258333Y-102104318D02*
X174379285Y-102164794D01*
X174379285Y-102164794D02*
X174439761Y-102225270D01*
X174439761Y-102225270D02*
X174500238Y-102346222D01*
X174500238Y-102346222D02*
X174500238Y-102467175D01*
X174500238Y-102467175D02*
X174439761Y-102648603D01*
X174439761Y-102648603D02*
X173714047Y-103374318D01*
X173714047Y-103374318D02*
X174500238Y-103374318D01*
D11*
X98466667Y-81707200D02*
X98609524Y-81754819D01*
X98609524Y-81754819D02*
X98847619Y-81754819D01*
X98847619Y-81754819D02*
X98942857Y-81707200D01*
X98942857Y-81707200D02*
X98990476Y-81659580D01*
X98990476Y-81659580D02*
X99038095Y-81564342D01*
X99038095Y-81564342D02*
X99038095Y-81469104D01*
X99038095Y-81469104D02*
X98990476Y-81373866D01*
X98990476Y-81373866D02*
X98942857Y-81326247D01*
X98942857Y-81326247D02*
X98847619Y-81278628D01*
X98847619Y-81278628D02*
X98657143Y-81231009D01*
X98657143Y-81231009D02*
X98561905Y-81183390D01*
X98561905Y-81183390D02*
X98514286Y-81135771D01*
X98514286Y-81135771D02*
X98466667Y-81040533D01*
X98466667Y-81040533D02*
X98466667Y-80945295D01*
X98466667Y-80945295D02*
X98514286Y-80850057D01*
X98514286Y-80850057D02*
X98561905Y-80802438D01*
X98561905Y-80802438D02*
X98657143Y-80754819D01*
X98657143Y-80754819D02*
X98895238Y-80754819D01*
X98895238Y-80754819D02*
X99038095Y-80802438D01*
X99371429Y-80754819D02*
X99609524Y-81754819D01*
X99609524Y-81754819D02*
X99800000Y-81040533D01*
X99800000Y-81040533D02*
X99990476Y-81754819D01*
X99990476Y-81754819D02*
X100228572Y-80754819D01*
X101133333Y-81754819D02*
X100561905Y-81754819D01*
X100847619Y-81754819D02*
X100847619Y-80754819D01*
X100847619Y-80754819D02*
X100752381Y-80897676D01*
X100752381Y-80897676D02*
X100657143Y-80992914D01*
X100657143Y-80992914D02*
X100561905Y-81040533D01*
X98983333Y-96154819D02*
X98650000Y-95678628D01*
X98411905Y-96154819D02*
X98411905Y-95154819D01*
X98411905Y-95154819D02*
X98792857Y-95154819D01*
X98792857Y-95154819D02*
X98888095Y-95202438D01*
X98888095Y-95202438D02*
X98935714Y-95250057D01*
X98935714Y-95250057D02*
X98983333Y-95345295D01*
X98983333Y-95345295D02*
X98983333Y-95488152D01*
X98983333Y-95488152D02*
X98935714Y-95583390D01*
X98935714Y-95583390D02*
X98888095Y-95631009D01*
X98888095Y-95631009D02*
X98792857Y-95678628D01*
X98792857Y-95678628D02*
X98411905Y-95678628D01*
X99316667Y-95154819D02*
X99935714Y-95154819D01*
X99935714Y-95154819D02*
X99602381Y-95535771D01*
X99602381Y-95535771D02*
X99745238Y-95535771D01*
X99745238Y-95535771D02*
X99840476Y-95583390D01*
X99840476Y-95583390D02*
X99888095Y-95631009D01*
X99888095Y-95631009D02*
X99935714Y-95726247D01*
X99935714Y-95726247D02*
X99935714Y-95964342D01*
X99935714Y-95964342D02*
X99888095Y-96059580D01*
X99888095Y-96059580D02*
X99840476Y-96107200D01*
X99840476Y-96107200D02*
X99745238Y-96154819D01*
X99745238Y-96154819D02*
X99459524Y-96154819D01*
X99459524Y-96154819D02*
X99364286Y-96107200D01*
X99364286Y-96107200D02*
X99316667Y-96059580D01*
X185052380Y-107854819D02*
X184719047Y-107378628D01*
X184480952Y-107854819D02*
X184480952Y-106854819D01*
X184480952Y-106854819D02*
X184861904Y-106854819D01*
X184861904Y-106854819D02*
X184957142Y-106902438D01*
X184957142Y-106902438D02*
X185004761Y-106950057D01*
X185004761Y-106950057D02*
X185052380Y-107045295D01*
X185052380Y-107045295D02*
X185052380Y-107188152D01*
X185052380Y-107188152D02*
X185004761Y-107283390D01*
X185004761Y-107283390D02*
X184957142Y-107331009D01*
X184957142Y-107331009D02*
X184861904Y-107378628D01*
X184861904Y-107378628D02*
X184480952Y-107378628D01*
X185480952Y-107331009D02*
X185814285Y-107331009D01*
X185957142Y-107854819D02*
X185480952Y-107854819D01*
X185480952Y-107854819D02*
X185480952Y-106854819D01*
X185480952Y-106854819D02*
X185957142Y-106854819D01*
X186719047Y-107331009D02*
X186385714Y-107331009D01*
X186385714Y-107854819D02*
X186385714Y-106854819D01*
X186385714Y-106854819D02*
X186861904Y-106854819D01*
X187766666Y-107854819D02*
X187195238Y-107854819D01*
X187480952Y-107854819D02*
X187480952Y-106854819D01*
X187480952Y-106854819D02*
X187385714Y-106997676D01*
X187385714Y-106997676D02*
X187290476Y-107092914D01*
X187290476Y-107092914D02*
X187195238Y-107140533D01*
X200716666Y-69054819D02*
X200716666Y-69769104D01*
X200716666Y-69769104D02*
X200669047Y-69911961D01*
X200669047Y-69911961D02*
X200573809Y-70007200D01*
X200573809Y-70007200D02*
X200430952Y-70054819D01*
X200430952Y-70054819D02*
X200335714Y-70054819D01*
X201621428Y-69388152D02*
X201621428Y-70054819D01*
X201383333Y-69007200D02*
X201145238Y-69721485D01*
X201145238Y-69721485D02*
X201764285Y-69721485D01*
X101183333Y-120804819D02*
X100850000Y-120328628D01*
X100611905Y-120804819D02*
X100611905Y-119804819D01*
X100611905Y-119804819D02*
X100992857Y-119804819D01*
X100992857Y-119804819D02*
X101088095Y-119852438D01*
X101088095Y-119852438D02*
X101135714Y-119900057D01*
X101135714Y-119900057D02*
X101183333Y-119995295D01*
X101183333Y-119995295D02*
X101183333Y-120138152D01*
X101183333Y-120138152D02*
X101135714Y-120233390D01*
X101135714Y-120233390D02*
X101088095Y-120281009D01*
X101088095Y-120281009D02*
X100992857Y-120328628D01*
X100992857Y-120328628D02*
X100611905Y-120328628D01*
X101516667Y-119804819D02*
X102183333Y-119804819D01*
X102183333Y-119804819D02*
X101754762Y-120804819D01*
X153959580Y-102042857D02*
X154007200Y-102090476D01*
X154007200Y-102090476D02*
X154054819Y-102233333D01*
X154054819Y-102233333D02*
X154054819Y-102328571D01*
X154054819Y-102328571D02*
X154007200Y-102471428D01*
X154007200Y-102471428D02*
X153911961Y-102566666D01*
X153911961Y-102566666D02*
X153816723Y-102614285D01*
X153816723Y-102614285D02*
X153626247Y-102661904D01*
X153626247Y-102661904D02*
X153483390Y-102661904D01*
X153483390Y-102661904D02*
X153292914Y-102614285D01*
X153292914Y-102614285D02*
X153197676Y-102566666D01*
X153197676Y-102566666D02*
X153102438Y-102471428D01*
X153102438Y-102471428D02*
X153054819Y-102328571D01*
X153054819Y-102328571D02*
X153054819Y-102233333D01*
X153054819Y-102233333D02*
X153102438Y-102090476D01*
X153102438Y-102090476D02*
X153150057Y-102042857D01*
X154054819Y-101090476D02*
X154054819Y-101661904D01*
X154054819Y-101376190D02*
X153054819Y-101376190D01*
X153054819Y-101376190D02*
X153197676Y-101471428D01*
X153197676Y-101471428D02*
X153292914Y-101566666D01*
X153292914Y-101566666D02*
X153340533Y-101661904D01*
X153054819Y-100757142D02*
X153054819Y-100138095D01*
X153054819Y-100138095D02*
X153435771Y-100471428D01*
X153435771Y-100471428D02*
X153435771Y-100328571D01*
X153435771Y-100328571D02*
X153483390Y-100233333D01*
X153483390Y-100233333D02*
X153531009Y-100185714D01*
X153531009Y-100185714D02*
X153626247Y-100138095D01*
X153626247Y-100138095D02*
X153864342Y-100138095D01*
X153864342Y-100138095D02*
X153959580Y-100185714D01*
X153959580Y-100185714D02*
X154007200Y-100233333D01*
X154007200Y-100233333D02*
X154054819Y-100328571D01*
X154054819Y-100328571D02*
X154054819Y-100614285D01*
X154054819Y-100614285D02*
X154007200Y-100709523D01*
X154007200Y-100709523D02*
X153959580Y-100757142D01*
X115533333Y-82209580D02*
X115485714Y-82257200D01*
X115485714Y-82257200D02*
X115342857Y-82304819D01*
X115342857Y-82304819D02*
X115247619Y-82304819D01*
X115247619Y-82304819D02*
X115104762Y-82257200D01*
X115104762Y-82257200D02*
X115009524Y-82161961D01*
X115009524Y-82161961D02*
X114961905Y-82066723D01*
X114961905Y-82066723D02*
X114914286Y-81876247D01*
X114914286Y-81876247D02*
X114914286Y-81733390D01*
X114914286Y-81733390D02*
X114961905Y-81542914D01*
X114961905Y-81542914D02*
X115009524Y-81447676D01*
X115009524Y-81447676D02*
X115104762Y-81352438D01*
X115104762Y-81352438D02*
X115247619Y-81304819D01*
X115247619Y-81304819D02*
X115342857Y-81304819D01*
X115342857Y-81304819D02*
X115485714Y-81352438D01*
X115485714Y-81352438D02*
X115533333Y-81400057D01*
X116009524Y-82304819D02*
X116200000Y-82304819D01*
X116200000Y-82304819D02*
X116295238Y-82257200D01*
X116295238Y-82257200D02*
X116342857Y-82209580D01*
X116342857Y-82209580D02*
X116438095Y-82066723D01*
X116438095Y-82066723D02*
X116485714Y-81876247D01*
X116485714Y-81876247D02*
X116485714Y-81495295D01*
X116485714Y-81495295D02*
X116438095Y-81400057D01*
X116438095Y-81400057D02*
X116390476Y-81352438D01*
X116390476Y-81352438D02*
X116295238Y-81304819D01*
X116295238Y-81304819D02*
X116104762Y-81304819D01*
X116104762Y-81304819D02*
X116009524Y-81352438D01*
X116009524Y-81352438D02*
X115961905Y-81400057D01*
X115961905Y-81400057D02*
X115914286Y-81495295D01*
X115914286Y-81495295D02*
X115914286Y-81733390D01*
X115914286Y-81733390D02*
X115961905Y-81828628D01*
X115961905Y-81828628D02*
X116009524Y-81876247D01*
X116009524Y-81876247D02*
X116104762Y-81923866D01*
X116104762Y-81923866D02*
X116295238Y-81923866D01*
X116295238Y-81923866D02*
X116390476Y-81876247D01*
X116390476Y-81876247D02*
X116438095Y-81828628D01*
X116438095Y-81828628D02*
X116485714Y-81733390D01*
X149016666Y-119154819D02*
X149016666Y-119869104D01*
X149016666Y-119869104D02*
X148969047Y-120011961D01*
X148969047Y-120011961D02*
X148873809Y-120107200D01*
X148873809Y-120107200D02*
X148730952Y-120154819D01*
X148730952Y-120154819D02*
X148635714Y-120154819D01*
X149397619Y-119154819D02*
X150016666Y-119154819D01*
X150016666Y-119154819D02*
X149683333Y-119535771D01*
X149683333Y-119535771D02*
X149826190Y-119535771D01*
X149826190Y-119535771D02*
X149921428Y-119583390D01*
X149921428Y-119583390D02*
X149969047Y-119631009D01*
X149969047Y-119631009D02*
X150016666Y-119726247D01*
X150016666Y-119726247D02*
X150016666Y-119964342D01*
X150016666Y-119964342D02*
X149969047Y-120059580D01*
X149969047Y-120059580D02*
X149921428Y-120107200D01*
X149921428Y-120107200D02*
X149826190Y-120154819D01*
X149826190Y-120154819D02*
X149540476Y-120154819D01*
X149540476Y-120154819D02*
X149445238Y-120107200D01*
X149445238Y-120107200D02*
X149397619Y-120059580D01*
X114957142Y-76309580D02*
X114909523Y-76357200D01*
X114909523Y-76357200D02*
X114766666Y-76404819D01*
X114766666Y-76404819D02*
X114671428Y-76404819D01*
X114671428Y-76404819D02*
X114528571Y-76357200D01*
X114528571Y-76357200D02*
X114433333Y-76261961D01*
X114433333Y-76261961D02*
X114385714Y-76166723D01*
X114385714Y-76166723D02*
X114338095Y-75976247D01*
X114338095Y-75976247D02*
X114338095Y-75833390D01*
X114338095Y-75833390D02*
X114385714Y-75642914D01*
X114385714Y-75642914D02*
X114433333Y-75547676D01*
X114433333Y-75547676D02*
X114528571Y-75452438D01*
X114528571Y-75452438D02*
X114671428Y-75404819D01*
X114671428Y-75404819D02*
X114766666Y-75404819D01*
X114766666Y-75404819D02*
X114909523Y-75452438D01*
X114909523Y-75452438D02*
X114957142Y-75500057D01*
X115909523Y-76404819D02*
X115338095Y-76404819D01*
X115623809Y-76404819D02*
X115623809Y-75404819D01*
X115623809Y-75404819D02*
X115528571Y-75547676D01*
X115528571Y-75547676D02*
X115433333Y-75642914D01*
X115433333Y-75642914D02*
X115338095Y-75690533D01*
X116528571Y-75404819D02*
X116623809Y-75404819D01*
X116623809Y-75404819D02*
X116719047Y-75452438D01*
X116719047Y-75452438D02*
X116766666Y-75500057D01*
X116766666Y-75500057D02*
X116814285Y-75595295D01*
X116814285Y-75595295D02*
X116861904Y-75785771D01*
X116861904Y-75785771D02*
X116861904Y-76023866D01*
X116861904Y-76023866D02*
X116814285Y-76214342D01*
X116814285Y-76214342D02*
X116766666Y-76309580D01*
X116766666Y-76309580D02*
X116719047Y-76357200D01*
X116719047Y-76357200D02*
X116623809Y-76404819D01*
X116623809Y-76404819D02*
X116528571Y-76404819D01*
X116528571Y-76404819D02*
X116433333Y-76357200D01*
X116433333Y-76357200D02*
X116385714Y-76309580D01*
X116385714Y-76309580D02*
X116338095Y-76214342D01*
X116338095Y-76214342D02*
X116290476Y-76023866D01*
X116290476Y-76023866D02*
X116290476Y-75785771D01*
X116290476Y-75785771D02*
X116338095Y-75595295D01*
X116338095Y-75595295D02*
X116385714Y-75500057D01*
X116385714Y-75500057D02*
X116433333Y-75452438D01*
X116433333Y-75452438D02*
X116528571Y-75404819D01*
X100683333Y-76209580D02*
X100635714Y-76257200D01*
X100635714Y-76257200D02*
X100492857Y-76304819D01*
X100492857Y-76304819D02*
X100397619Y-76304819D01*
X100397619Y-76304819D02*
X100254762Y-76257200D01*
X100254762Y-76257200D02*
X100159524Y-76161961D01*
X100159524Y-76161961D02*
X100111905Y-76066723D01*
X100111905Y-76066723D02*
X100064286Y-75876247D01*
X100064286Y-75876247D02*
X100064286Y-75733390D01*
X100064286Y-75733390D02*
X100111905Y-75542914D01*
X100111905Y-75542914D02*
X100159524Y-75447676D01*
X100159524Y-75447676D02*
X100254762Y-75352438D01*
X100254762Y-75352438D02*
X100397619Y-75304819D01*
X100397619Y-75304819D02*
X100492857Y-75304819D01*
X100492857Y-75304819D02*
X100635714Y-75352438D01*
X100635714Y-75352438D02*
X100683333Y-75400057D01*
X101635714Y-76304819D02*
X101064286Y-76304819D01*
X101350000Y-76304819D02*
X101350000Y-75304819D01*
X101350000Y-75304819D02*
X101254762Y-75447676D01*
X101254762Y-75447676D02*
X101159524Y-75542914D01*
X101159524Y-75542914D02*
X101064286Y-75590533D01*
X157259580Y-109042857D02*
X157307200Y-109090476D01*
X157307200Y-109090476D02*
X157354819Y-109233333D01*
X157354819Y-109233333D02*
X157354819Y-109328571D01*
X157354819Y-109328571D02*
X157307200Y-109471428D01*
X157307200Y-109471428D02*
X157211961Y-109566666D01*
X157211961Y-109566666D02*
X157116723Y-109614285D01*
X157116723Y-109614285D02*
X156926247Y-109661904D01*
X156926247Y-109661904D02*
X156783390Y-109661904D01*
X156783390Y-109661904D02*
X156592914Y-109614285D01*
X156592914Y-109614285D02*
X156497676Y-109566666D01*
X156497676Y-109566666D02*
X156402438Y-109471428D01*
X156402438Y-109471428D02*
X156354819Y-109328571D01*
X156354819Y-109328571D02*
X156354819Y-109233333D01*
X156354819Y-109233333D02*
X156402438Y-109090476D01*
X156402438Y-109090476D02*
X156450057Y-109042857D01*
X157354819Y-108090476D02*
X157354819Y-108661904D01*
X157354819Y-108376190D02*
X156354819Y-108376190D01*
X156354819Y-108376190D02*
X156497676Y-108471428D01*
X156497676Y-108471428D02*
X156592914Y-108566666D01*
X156592914Y-108566666D02*
X156640533Y-108661904D01*
X156688152Y-107233333D02*
X157354819Y-107233333D01*
X156307200Y-107471428D02*
X157021485Y-107709523D01*
X157021485Y-107709523D02*
X157021485Y-107090476D01*
X107983333Y-76404819D02*
X107650000Y-75928628D01*
X107411905Y-76404819D02*
X107411905Y-75404819D01*
X107411905Y-75404819D02*
X107792857Y-75404819D01*
X107792857Y-75404819D02*
X107888095Y-75452438D01*
X107888095Y-75452438D02*
X107935714Y-75500057D01*
X107935714Y-75500057D02*
X107983333Y-75595295D01*
X107983333Y-75595295D02*
X107983333Y-75738152D01*
X107983333Y-75738152D02*
X107935714Y-75833390D01*
X107935714Y-75833390D02*
X107888095Y-75881009D01*
X107888095Y-75881009D02*
X107792857Y-75928628D01*
X107792857Y-75928628D02*
X107411905Y-75928628D01*
X108935714Y-76404819D02*
X108364286Y-76404819D01*
X108650000Y-76404819D02*
X108650000Y-75404819D01*
X108650000Y-75404819D02*
X108554762Y-75547676D01*
X108554762Y-75547676D02*
X108459524Y-75642914D01*
X108459524Y-75642914D02*
X108364286Y-75690533D01*
X106861905Y-122804819D02*
X106861905Y-121804819D01*
X106861905Y-121804819D02*
X107242857Y-121804819D01*
X107242857Y-121804819D02*
X107338095Y-121852438D01*
X107338095Y-121852438D02*
X107385714Y-121900057D01*
X107385714Y-121900057D02*
X107433333Y-121995295D01*
X107433333Y-121995295D02*
X107433333Y-122138152D01*
X107433333Y-122138152D02*
X107385714Y-122233390D01*
X107385714Y-122233390D02*
X107338095Y-122281009D01*
X107338095Y-122281009D02*
X107242857Y-122328628D01*
X107242857Y-122328628D02*
X106861905Y-122328628D01*
X108385714Y-122804819D02*
X107814286Y-122804819D01*
X108100000Y-122804819D02*
X108100000Y-121804819D01*
X108100000Y-121804819D02*
X108004762Y-121947676D01*
X108004762Y-121947676D02*
X107909524Y-122042914D01*
X107909524Y-122042914D02*
X107814286Y-122090533D01*
X115483333Y-88209580D02*
X115435714Y-88257200D01*
X115435714Y-88257200D02*
X115292857Y-88304819D01*
X115292857Y-88304819D02*
X115197619Y-88304819D01*
X115197619Y-88304819D02*
X115054762Y-88257200D01*
X115054762Y-88257200D02*
X114959524Y-88161961D01*
X114959524Y-88161961D02*
X114911905Y-88066723D01*
X114911905Y-88066723D02*
X114864286Y-87876247D01*
X114864286Y-87876247D02*
X114864286Y-87733390D01*
X114864286Y-87733390D02*
X114911905Y-87542914D01*
X114911905Y-87542914D02*
X114959524Y-87447676D01*
X114959524Y-87447676D02*
X115054762Y-87352438D01*
X115054762Y-87352438D02*
X115197619Y-87304819D01*
X115197619Y-87304819D02*
X115292857Y-87304819D01*
X115292857Y-87304819D02*
X115435714Y-87352438D01*
X115435714Y-87352438D02*
X115483333Y-87400057D01*
X116054762Y-87733390D02*
X115959524Y-87685771D01*
X115959524Y-87685771D02*
X115911905Y-87638152D01*
X115911905Y-87638152D02*
X115864286Y-87542914D01*
X115864286Y-87542914D02*
X115864286Y-87495295D01*
X115864286Y-87495295D02*
X115911905Y-87400057D01*
X115911905Y-87400057D02*
X115959524Y-87352438D01*
X115959524Y-87352438D02*
X116054762Y-87304819D01*
X116054762Y-87304819D02*
X116245238Y-87304819D01*
X116245238Y-87304819D02*
X116340476Y-87352438D01*
X116340476Y-87352438D02*
X116388095Y-87400057D01*
X116388095Y-87400057D02*
X116435714Y-87495295D01*
X116435714Y-87495295D02*
X116435714Y-87542914D01*
X116435714Y-87542914D02*
X116388095Y-87638152D01*
X116388095Y-87638152D02*
X116340476Y-87685771D01*
X116340476Y-87685771D02*
X116245238Y-87733390D01*
X116245238Y-87733390D02*
X116054762Y-87733390D01*
X116054762Y-87733390D02*
X115959524Y-87781009D01*
X115959524Y-87781009D02*
X115911905Y-87828628D01*
X115911905Y-87828628D02*
X115864286Y-87923866D01*
X115864286Y-87923866D02*
X115864286Y-88114342D01*
X115864286Y-88114342D02*
X115911905Y-88209580D01*
X115911905Y-88209580D02*
X115959524Y-88257200D01*
X115959524Y-88257200D02*
X116054762Y-88304819D01*
X116054762Y-88304819D02*
X116245238Y-88304819D01*
X116245238Y-88304819D02*
X116340476Y-88257200D01*
X116340476Y-88257200D02*
X116388095Y-88209580D01*
X116388095Y-88209580D02*
X116435714Y-88114342D01*
X116435714Y-88114342D02*
X116435714Y-87923866D01*
X116435714Y-87923866D02*
X116388095Y-87828628D01*
X116388095Y-87828628D02*
X116340476Y-87781009D01*
X116340476Y-87781009D02*
X116245238Y-87733390D01*
X111679580Y-102791666D02*
X111727200Y-102839285D01*
X111727200Y-102839285D02*
X111774819Y-102982142D01*
X111774819Y-102982142D02*
X111774819Y-103077380D01*
X111774819Y-103077380D02*
X111727200Y-103220237D01*
X111727200Y-103220237D02*
X111631961Y-103315475D01*
X111631961Y-103315475D02*
X111536723Y-103363094D01*
X111536723Y-103363094D02*
X111346247Y-103410713D01*
X111346247Y-103410713D02*
X111203390Y-103410713D01*
X111203390Y-103410713D02*
X111012914Y-103363094D01*
X111012914Y-103363094D02*
X110917676Y-103315475D01*
X110917676Y-103315475D02*
X110822438Y-103220237D01*
X110822438Y-103220237D02*
X110774819Y-103077380D01*
X110774819Y-103077380D02*
X110774819Y-102982142D01*
X110774819Y-102982142D02*
X110822438Y-102839285D01*
X110822438Y-102839285D02*
X110870057Y-102791666D01*
X110870057Y-102410713D02*
X110822438Y-102363094D01*
X110822438Y-102363094D02*
X110774819Y-102267856D01*
X110774819Y-102267856D02*
X110774819Y-102029761D01*
X110774819Y-102029761D02*
X110822438Y-101934523D01*
X110822438Y-101934523D02*
X110870057Y-101886904D01*
X110870057Y-101886904D02*
X110965295Y-101839285D01*
X110965295Y-101839285D02*
X111060533Y-101839285D01*
X111060533Y-101839285D02*
X111203390Y-101886904D01*
X111203390Y-101886904D02*
X111774819Y-102458332D01*
X111774819Y-102458332D02*
X111774819Y-101839285D01*
X159559580Y-115442857D02*
X159607200Y-115490476D01*
X159607200Y-115490476D02*
X159654819Y-115633333D01*
X159654819Y-115633333D02*
X159654819Y-115728571D01*
X159654819Y-115728571D02*
X159607200Y-115871428D01*
X159607200Y-115871428D02*
X159511961Y-115966666D01*
X159511961Y-115966666D02*
X159416723Y-116014285D01*
X159416723Y-116014285D02*
X159226247Y-116061904D01*
X159226247Y-116061904D02*
X159083390Y-116061904D01*
X159083390Y-116061904D02*
X158892914Y-116014285D01*
X158892914Y-116014285D02*
X158797676Y-115966666D01*
X158797676Y-115966666D02*
X158702438Y-115871428D01*
X158702438Y-115871428D02*
X158654819Y-115728571D01*
X158654819Y-115728571D02*
X158654819Y-115633333D01*
X158654819Y-115633333D02*
X158702438Y-115490476D01*
X158702438Y-115490476D02*
X158750057Y-115442857D01*
X159654819Y-114490476D02*
X159654819Y-115061904D01*
X159654819Y-114776190D02*
X158654819Y-114776190D01*
X158654819Y-114776190D02*
X158797676Y-114871428D01*
X158797676Y-114871428D02*
X158892914Y-114966666D01*
X158892914Y-114966666D02*
X158940533Y-115061904D01*
X158654819Y-113585714D02*
X158654819Y-114061904D01*
X158654819Y-114061904D02*
X159131009Y-114109523D01*
X159131009Y-114109523D02*
X159083390Y-114061904D01*
X159083390Y-114061904D02*
X159035771Y-113966666D01*
X159035771Y-113966666D02*
X159035771Y-113728571D01*
X159035771Y-113728571D02*
X159083390Y-113633333D01*
X159083390Y-113633333D02*
X159131009Y-113585714D01*
X159131009Y-113585714D02*
X159226247Y-113538095D01*
X159226247Y-113538095D02*
X159464342Y-113538095D01*
X159464342Y-113538095D02*
X159559580Y-113585714D01*
X159559580Y-113585714D02*
X159607200Y-113633333D01*
X159607200Y-113633333D02*
X159654819Y-113728571D01*
X159654819Y-113728571D02*
X159654819Y-113966666D01*
X159654819Y-113966666D02*
X159607200Y-114061904D01*
X159607200Y-114061904D02*
X159559580Y-114109523D01*
X99458333Y-109454819D02*
X99125000Y-108978628D01*
X98886905Y-109454819D02*
X98886905Y-108454819D01*
X98886905Y-108454819D02*
X99267857Y-108454819D01*
X99267857Y-108454819D02*
X99363095Y-108502438D01*
X99363095Y-108502438D02*
X99410714Y-108550057D01*
X99410714Y-108550057D02*
X99458333Y-108645295D01*
X99458333Y-108645295D02*
X99458333Y-108788152D01*
X99458333Y-108788152D02*
X99410714Y-108883390D01*
X99410714Y-108883390D02*
X99363095Y-108931009D01*
X99363095Y-108931009D02*
X99267857Y-108978628D01*
X99267857Y-108978628D02*
X98886905Y-108978628D01*
X99839286Y-108550057D02*
X99886905Y-108502438D01*
X99886905Y-108502438D02*
X99982143Y-108454819D01*
X99982143Y-108454819D02*
X100220238Y-108454819D01*
X100220238Y-108454819D02*
X100315476Y-108502438D01*
X100315476Y-108502438D02*
X100363095Y-108550057D01*
X100363095Y-108550057D02*
X100410714Y-108645295D01*
X100410714Y-108645295D02*
X100410714Y-108740533D01*
X100410714Y-108740533D02*
X100363095Y-108883390D01*
X100363095Y-108883390D02*
X99791667Y-109454819D01*
X99791667Y-109454819D02*
X100410714Y-109454819D01*
X158978628Y-109376190D02*
X159454819Y-109376190D01*
X158454819Y-109709523D02*
X158978628Y-109376190D01*
X158978628Y-109376190D02*
X158454819Y-109042857D01*
X158550057Y-108757142D02*
X158502438Y-108709523D01*
X158502438Y-108709523D02*
X158454819Y-108614285D01*
X158454819Y-108614285D02*
X158454819Y-108376190D01*
X158454819Y-108376190D02*
X158502438Y-108280952D01*
X158502438Y-108280952D02*
X158550057Y-108233333D01*
X158550057Y-108233333D02*
X158645295Y-108185714D01*
X158645295Y-108185714D02*
X158740533Y-108185714D01*
X158740533Y-108185714D02*
X158883390Y-108233333D01*
X158883390Y-108233333D02*
X159454819Y-108804761D01*
X159454819Y-108804761D02*
X159454819Y-108185714D01*
X120183333Y-109459580D02*
X120135714Y-109507200D01*
X120135714Y-109507200D02*
X119992857Y-109554819D01*
X119992857Y-109554819D02*
X119897619Y-109554819D01*
X119897619Y-109554819D02*
X119754762Y-109507200D01*
X119754762Y-109507200D02*
X119659524Y-109411961D01*
X119659524Y-109411961D02*
X119611905Y-109316723D01*
X119611905Y-109316723D02*
X119564286Y-109126247D01*
X119564286Y-109126247D02*
X119564286Y-108983390D01*
X119564286Y-108983390D02*
X119611905Y-108792914D01*
X119611905Y-108792914D02*
X119659524Y-108697676D01*
X119659524Y-108697676D02*
X119754762Y-108602438D01*
X119754762Y-108602438D02*
X119897619Y-108554819D01*
X119897619Y-108554819D02*
X119992857Y-108554819D01*
X119992857Y-108554819D02*
X120135714Y-108602438D01*
X120135714Y-108602438D02*
X120183333Y-108650057D01*
X121040476Y-108888152D02*
X121040476Y-109554819D01*
X120802381Y-108507200D02*
X120564286Y-109221485D01*
X120564286Y-109221485D02*
X121183333Y-109221485D01*
X187383333Y-109359580D02*
X187335714Y-109407200D01*
X187335714Y-109407200D02*
X187192857Y-109454819D01*
X187192857Y-109454819D02*
X187097619Y-109454819D01*
X187097619Y-109454819D02*
X186954762Y-109407200D01*
X186954762Y-109407200D02*
X186859524Y-109311961D01*
X186859524Y-109311961D02*
X186811905Y-109216723D01*
X186811905Y-109216723D02*
X186764286Y-109026247D01*
X186764286Y-109026247D02*
X186764286Y-108883390D01*
X186764286Y-108883390D02*
X186811905Y-108692914D01*
X186811905Y-108692914D02*
X186859524Y-108597676D01*
X186859524Y-108597676D02*
X186954762Y-108502438D01*
X186954762Y-108502438D02*
X187097619Y-108454819D01*
X187097619Y-108454819D02*
X187192857Y-108454819D01*
X187192857Y-108454819D02*
X187335714Y-108502438D01*
X187335714Y-108502438D02*
X187383333Y-108550057D01*
X187716667Y-108454819D02*
X188383333Y-108454819D01*
X188383333Y-108454819D02*
X187954762Y-109454819D01*
X113983333Y-120304819D02*
X113650000Y-119828628D01*
X113411905Y-120304819D02*
X113411905Y-119304819D01*
X113411905Y-119304819D02*
X113792857Y-119304819D01*
X113792857Y-119304819D02*
X113888095Y-119352438D01*
X113888095Y-119352438D02*
X113935714Y-119400057D01*
X113935714Y-119400057D02*
X113983333Y-119495295D01*
X113983333Y-119495295D02*
X113983333Y-119638152D01*
X113983333Y-119638152D02*
X113935714Y-119733390D01*
X113935714Y-119733390D02*
X113888095Y-119781009D01*
X113888095Y-119781009D02*
X113792857Y-119828628D01*
X113792857Y-119828628D02*
X113411905Y-119828628D01*
X114554762Y-119733390D02*
X114459524Y-119685771D01*
X114459524Y-119685771D02*
X114411905Y-119638152D01*
X114411905Y-119638152D02*
X114364286Y-119542914D01*
X114364286Y-119542914D02*
X114364286Y-119495295D01*
X114364286Y-119495295D02*
X114411905Y-119400057D01*
X114411905Y-119400057D02*
X114459524Y-119352438D01*
X114459524Y-119352438D02*
X114554762Y-119304819D01*
X114554762Y-119304819D02*
X114745238Y-119304819D01*
X114745238Y-119304819D02*
X114840476Y-119352438D01*
X114840476Y-119352438D02*
X114888095Y-119400057D01*
X114888095Y-119400057D02*
X114935714Y-119495295D01*
X114935714Y-119495295D02*
X114935714Y-119542914D01*
X114935714Y-119542914D02*
X114888095Y-119638152D01*
X114888095Y-119638152D02*
X114840476Y-119685771D01*
X114840476Y-119685771D02*
X114745238Y-119733390D01*
X114745238Y-119733390D02*
X114554762Y-119733390D01*
X114554762Y-119733390D02*
X114459524Y-119781009D01*
X114459524Y-119781009D02*
X114411905Y-119828628D01*
X114411905Y-119828628D02*
X114364286Y-119923866D01*
X114364286Y-119923866D02*
X114364286Y-120114342D01*
X114364286Y-120114342D02*
X114411905Y-120209580D01*
X114411905Y-120209580D02*
X114459524Y-120257200D01*
X114459524Y-120257200D02*
X114554762Y-120304819D01*
X114554762Y-120304819D02*
X114745238Y-120304819D01*
X114745238Y-120304819D02*
X114840476Y-120257200D01*
X114840476Y-120257200D02*
X114888095Y-120209580D01*
X114888095Y-120209580D02*
X114935714Y-120114342D01*
X114935714Y-120114342D02*
X114935714Y-119923866D01*
X114935714Y-119923866D02*
X114888095Y-119828628D01*
X114888095Y-119828628D02*
X114840476Y-119781009D01*
X114840476Y-119781009D02*
X114745238Y-119733390D01*
X121583333Y-103959580D02*
X121535714Y-104007200D01*
X121535714Y-104007200D02*
X121392857Y-104054819D01*
X121392857Y-104054819D02*
X121297619Y-104054819D01*
X121297619Y-104054819D02*
X121154762Y-104007200D01*
X121154762Y-104007200D02*
X121059524Y-103911961D01*
X121059524Y-103911961D02*
X121011905Y-103816723D01*
X121011905Y-103816723D02*
X120964286Y-103626247D01*
X120964286Y-103626247D02*
X120964286Y-103483390D01*
X120964286Y-103483390D02*
X121011905Y-103292914D01*
X121011905Y-103292914D02*
X121059524Y-103197676D01*
X121059524Y-103197676D02*
X121154762Y-103102438D01*
X121154762Y-103102438D02*
X121297619Y-103054819D01*
X121297619Y-103054819D02*
X121392857Y-103054819D01*
X121392857Y-103054819D02*
X121535714Y-103102438D01*
X121535714Y-103102438D02*
X121583333Y-103150057D01*
X122440476Y-103054819D02*
X122250000Y-103054819D01*
X122250000Y-103054819D02*
X122154762Y-103102438D01*
X122154762Y-103102438D02*
X122107143Y-103150057D01*
X122107143Y-103150057D02*
X122011905Y-103292914D01*
X122011905Y-103292914D02*
X121964286Y-103483390D01*
X121964286Y-103483390D02*
X121964286Y-103864342D01*
X121964286Y-103864342D02*
X122011905Y-103959580D01*
X122011905Y-103959580D02*
X122059524Y-104007200D01*
X122059524Y-104007200D02*
X122154762Y-104054819D01*
X122154762Y-104054819D02*
X122345238Y-104054819D01*
X122345238Y-104054819D02*
X122440476Y-104007200D01*
X122440476Y-104007200D02*
X122488095Y-103959580D01*
X122488095Y-103959580D02*
X122535714Y-103864342D01*
X122535714Y-103864342D02*
X122535714Y-103626247D01*
X122535714Y-103626247D02*
X122488095Y-103531009D01*
X122488095Y-103531009D02*
X122440476Y-103483390D01*
X122440476Y-103483390D02*
X122345238Y-103435771D01*
X122345238Y-103435771D02*
X122154762Y-103435771D01*
X122154762Y-103435771D02*
X122059524Y-103483390D01*
X122059524Y-103483390D02*
X122011905Y-103531009D01*
X122011905Y-103531009D02*
X121964286Y-103626247D01*
D10*
X115560237Y-100174318D02*
X115560237Y-98904318D01*
X116890714Y-100053365D02*
X116830238Y-100113842D01*
X116830238Y-100113842D02*
X116648809Y-100174318D01*
X116648809Y-100174318D02*
X116527857Y-100174318D01*
X116527857Y-100174318D02*
X116346428Y-100113842D01*
X116346428Y-100113842D02*
X116225476Y-99992889D01*
X116225476Y-99992889D02*
X116164999Y-99871937D01*
X116164999Y-99871937D02*
X116104523Y-99630032D01*
X116104523Y-99630032D02*
X116104523Y-99448603D01*
X116104523Y-99448603D02*
X116164999Y-99206699D01*
X116164999Y-99206699D02*
X116225476Y-99085746D01*
X116225476Y-99085746D02*
X116346428Y-98964794D01*
X116346428Y-98964794D02*
X116527857Y-98904318D01*
X116527857Y-98904318D02*
X116648809Y-98904318D01*
X116648809Y-98904318D02*
X116830238Y-98964794D01*
X116830238Y-98964794D02*
X116890714Y-99025270D01*
X118100238Y-100174318D02*
X117374523Y-100174318D01*
X117737380Y-100174318D02*
X117737380Y-98904318D01*
X117737380Y-98904318D02*
X117616428Y-99085746D01*
X117616428Y-99085746D02*
X117495476Y-99206699D01*
X117495476Y-99206699D02*
X117374523Y-99267175D01*
D11*
X192611905Y-96554819D02*
X192611905Y-95554819D01*
X192611905Y-95554819D02*
X192850000Y-95554819D01*
X192850000Y-95554819D02*
X192992857Y-95602438D01*
X192992857Y-95602438D02*
X193088095Y-95697676D01*
X193088095Y-95697676D02*
X193135714Y-95792914D01*
X193135714Y-95792914D02*
X193183333Y-95983390D01*
X193183333Y-95983390D02*
X193183333Y-96126247D01*
X193183333Y-96126247D02*
X193135714Y-96316723D01*
X193135714Y-96316723D02*
X193088095Y-96411961D01*
X193088095Y-96411961D02*
X192992857Y-96507200D01*
X192992857Y-96507200D02*
X192850000Y-96554819D01*
X192850000Y-96554819D02*
X192611905Y-96554819D01*
X194135714Y-96554819D02*
X193564286Y-96554819D01*
X193850000Y-96554819D02*
X193850000Y-95554819D01*
X193850000Y-95554819D02*
X193754762Y-95697676D01*
X193754762Y-95697676D02*
X193659524Y-95792914D01*
X193659524Y-95792914D02*
X193564286Y-95840533D01*
X159028628Y-101676190D02*
X159504819Y-101676190D01*
X158504819Y-102009523D02*
X159028628Y-101676190D01*
X159028628Y-101676190D02*
X158504819Y-101342857D01*
X159504819Y-100485714D02*
X159504819Y-101057142D01*
X159504819Y-100771428D02*
X158504819Y-100771428D01*
X158504819Y-100771428D02*
X158647676Y-100866666D01*
X158647676Y-100866666D02*
X158742914Y-100961904D01*
X158742914Y-100961904D02*
X158790533Y-101057142D01*
X115383333Y-93709580D02*
X115335714Y-93757200D01*
X115335714Y-93757200D02*
X115192857Y-93804819D01*
X115192857Y-93804819D02*
X115097619Y-93804819D01*
X115097619Y-93804819D02*
X114954762Y-93757200D01*
X114954762Y-93757200D02*
X114859524Y-93661961D01*
X114859524Y-93661961D02*
X114811905Y-93566723D01*
X114811905Y-93566723D02*
X114764286Y-93376247D01*
X114764286Y-93376247D02*
X114764286Y-93233390D01*
X114764286Y-93233390D02*
X114811905Y-93042914D01*
X114811905Y-93042914D02*
X114859524Y-92947676D01*
X114859524Y-92947676D02*
X114954762Y-92852438D01*
X114954762Y-92852438D02*
X115097619Y-92804819D01*
X115097619Y-92804819D02*
X115192857Y-92804819D01*
X115192857Y-92804819D02*
X115335714Y-92852438D01*
X115335714Y-92852438D02*
X115383333Y-92900057D01*
X116288095Y-92804819D02*
X115811905Y-92804819D01*
X115811905Y-92804819D02*
X115764286Y-93281009D01*
X115764286Y-93281009D02*
X115811905Y-93233390D01*
X115811905Y-93233390D02*
X115907143Y-93185771D01*
X115907143Y-93185771D02*
X116145238Y-93185771D01*
X116145238Y-93185771D02*
X116240476Y-93233390D01*
X116240476Y-93233390D02*
X116288095Y-93281009D01*
X116288095Y-93281009D02*
X116335714Y-93376247D01*
X116335714Y-93376247D02*
X116335714Y-93614342D01*
X116335714Y-93614342D02*
X116288095Y-93709580D01*
X116288095Y-93709580D02*
X116240476Y-93757200D01*
X116240476Y-93757200D02*
X116145238Y-93804819D01*
X116145238Y-93804819D02*
X115907143Y-93804819D01*
X115907143Y-93804819D02*
X115811905Y-93757200D01*
X115811905Y-93757200D02*
X115764286Y-93709580D01*
X156359580Y-95792857D02*
X156407200Y-95840476D01*
X156407200Y-95840476D02*
X156454819Y-95983333D01*
X156454819Y-95983333D02*
X156454819Y-96078571D01*
X156454819Y-96078571D02*
X156407200Y-96221428D01*
X156407200Y-96221428D02*
X156311961Y-96316666D01*
X156311961Y-96316666D02*
X156216723Y-96364285D01*
X156216723Y-96364285D02*
X156026247Y-96411904D01*
X156026247Y-96411904D02*
X155883390Y-96411904D01*
X155883390Y-96411904D02*
X155692914Y-96364285D01*
X155692914Y-96364285D02*
X155597676Y-96316666D01*
X155597676Y-96316666D02*
X155502438Y-96221428D01*
X155502438Y-96221428D02*
X155454819Y-96078571D01*
X155454819Y-96078571D02*
X155454819Y-95983333D01*
X155454819Y-95983333D02*
X155502438Y-95840476D01*
X155502438Y-95840476D02*
X155550057Y-95792857D01*
X156454819Y-94840476D02*
X156454819Y-95411904D01*
X156454819Y-95126190D02*
X155454819Y-95126190D01*
X155454819Y-95126190D02*
X155597676Y-95221428D01*
X155597676Y-95221428D02*
X155692914Y-95316666D01*
X155692914Y-95316666D02*
X155740533Y-95411904D01*
X155550057Y-94459523D02*
X155502438Y-94411904D01*
X155502438Y-94411904D02*
X155454819Y-94316666D01*
X155454819Y-94316666D02*
X155454819Y-94078571D01*
X155454819Y-94078571D02*
X155502438Y-93983333D01*
X155502438Y-93983333D02*
X155550057Y-93935714D01*
X155550057Y-93935714D02*
X155645295Y-93888095D01*
X155645295Y-93888095D02*
X155740533Y-93888095D01*
X155740533Y-93888095D02*
X155883390Y-93935714D01*
X155883390Y-93935714D02*
X156454819Y-94507142D01*
X156454819Y-94507142D02*
X156454819Y-93888095D01*
X201683333Y-103454819D02*
X201350000Y-102978628D01*
X201111905Y-103454819D02*
X201111905Y-102454819D01*
X201111905Y-102454819D02*
X201492857Y-102454819D01*
X201492857Y-102454819D02*
X201588095Y-102502438D01*
X201588095Y-102502438D02*
X201635714Y-102550057D01*
X201635714Y-102550057D02*
X201683333Y-102645295D01*
X201683333Y-102645295D02*
X201683333Y-102788152D01*
X201683333Y-102788152D02*
X201635714Y-102883390D01*
X201635714Y-102883390D02*
X201588095Y-102931009D01*
X201588095Y-102931009D02*
X201492857Y-102978628D01*
X201492857Y-102978628D02*
X201111905Y-102978628D01*
X202588095Y-102454819D02*
X202111905Y-102454819D01*
X202111905Y-102454819D02*
X202064286Y-102931009D01*
X202064286Y-102931009D02*
X202111905Y-102883390D01*
X202111905Y-102883390D02*
X202207143Y-102835771D01*
X202207143Y-102835771D02*
X202445238Y-102835771D01*
X202445238Y-102835771D02*
X202540476Y-102883390D01*
X202540476Y-102883390D02*
X202588095Y-102931009D01*
X202588095Y-102931009D02*
X202635714Y-103026247D01*
X202635714Y-103026247D02*
X202635714Y-103264342D01*
X202635714Y-103264342D02*
X202588095Y-103359580D01*
X202588095Y-103359580D02*
X202540476Y-103407200D01*
X202540476Y-103407200D02*
X202445238Y-103454819D01*
X202445238Y-103454819D02*
X202207143Y-103454819D01*
X202207143Y-103454819D02*
X202111905Y-103407200D01*
X202111905Y-103407200D02*
X202064286Y-103359580D01*
D10*
X81304318Y-95473332D02*
X82211461Y-95473332D01*
X82211461Y-95473332D02*
X82392889Y-95533809D01*
X82392889Y-95533809D02*
X82513842Y-95654761D01*
X82513842Y-95654761D02*
X82574318Y-95836190D01*
X82574318Y-95836190D02*
X82574318Y-95957142D01*
X82574318Y-94203332D02*
X82574318Y-94929047D01*
X82574318Y-94566190D02*
X81304318Y-94566190D01*
X81304318Y-94566190D02*
X81485746Y-94687142D01*
X81485746Y-94687142D02*
X81606699Y-94808094D01*
X81606699Y-94808094D02*
X81667175Y-94929047D01*
D11*
X192611905Y-103654819D02*
X192611905Y-102654819D01*
X192611905Y-102654819D02*
X192850000Y-102654819D01*
X192850000Y-102654819D02*
X192992857Y-102702438D01*
X192992857Y-102702438D02*
X193088095Y-102797676D01*
X193088095Y-102797676D02*
X193135714Y-102892914D01*
X193135714Y-102892914D02*
X193183333Y-103083390D01*
X193183333Y-103083390D02*
X193183333Y-103226247D01*
X193183333Y-103226247D02*
X193135714Y-103416723D01*
X193135714Y-103416723D02*
X193088095Y-103511961D01*
X193088095Y-103511961D02*
X192992857Y-103607200D01*
X192992857Y-103607200D02*
X192850000Y-103654819D01*
X192850000Y-103654819D02*
X192611905Y-103654819D01*
X193564286Y-102750057D02*
X193611905Y-102702438D01*
X193611905Y-102702438D02*
X193707143Y-102654819D01*
X193707143Y-102654819D02*
X193945238Y-102654819D01*
X193945238Y-102654819D02*
X194040476Y-102702438D01*
X194040476Y-102702438D02*
X194088095Y-102750057D01*
X194088095Y-102750057D02*
X194135714Y-102845295D01*
X194135714Y-102845295D02*
X194135714Y-102940533D01*
X194135714Y-102940533D02*
X194088095Y-103083390D01*
X194088095Y-103083390D02*
X193516667Y-103654819D01*
X193516667Y-103654819D02*
X194135714Y-103654819D01*
X107433333Y-117604819D02*
X107100000Y-117128628D01*
X106861905Y-117604819D02*
X106861905Y-116604819D01*
X106861905Y-116604819D02*
X107242857Y-116604819D01*
X107242857Y-116604819D02*
X107338095Y-116652438D01*
X107338095Y-116652438D02*
X107385714Y-116700057D01*
X107385714Y-116700057D02*
X107433333Y-116795295D01*
X107433333Y-116795295D02*
X107433333Y-116938152D01*
X107433333Y-116938152D02*
X107385714Y-117033390D01*
X107385714Y-117033390D02*
X107338095Y-117081009D01*
X107338095Y-117081009D02*
X107242857Y-117128628D01*
X107242857Y-117128628D02*
X106861905Y-117128628D01*
X107909524Y-117604819D02*
X108100000Y-117604819D01*
X108100000Y-117604819D02*
X108195238Y-117557200D01*
X108195238Y-117557200D02*
X108242857Y-117509580D01*
X108242857Y-117509580D02*
X108338095Y-117366723D01*
X108338095Y-117366723D02*
X108385714Y-117176247D01*
X108385714Y-117176247D02*
X108385714Y-116795295D01*
X108385714Y-116795295D02*
X108338095Y-116700057D01*
X108338095Y-116700057D02*
X108290476Y-116652438D01*
X108290476Y-116652438D02*
X108195238Y-116604819D01*
X108195238Y-116604819D02*
X108004762Y-116604819D01*
X108004762Y-116604819D02*
X107909524Y-116652438D01*
X107909524Y-116652438D02*
X107861905Y-116700057D01*
X107861905Y-116700057D02*
X107814286Y-116795295D01*
X107814286Y-116795295D02*
X107814286Y-117033390D01*
X107814286Y-117033390D02*
X107861905Y-117128628D01*
X107861905Y-117128628D02*
X107909524Y-117176247D01*
X107909524Y-117176247D02*
X108004762Y-117223866D01*
X108004762Y-117223866D02*
X108195238Y-117223866D01*
X108195238Y-117223866D02*
X108290476Y-117176247D01*
X108290476Y-117176247D02*
X108338095Y-117128628D01*
X108338095Y-117128628D02*
X108385714Y-117033390D01*
X201483333Y-97154819D02*
X201150000Y-96678628D01*
X200911905Y-97154819D02*
X200911905Y-96154819D01*
X200911905Y-96154819D02*
X201292857Y-96154819D01*
X201292857Y-96154819D02*
X201388095Y-96202438D01*
X201388095Y-96202438D02*
X201435714Y-96250057D01*
X201435714Y-96250057D02*
X201483333Y-96345295D01*
X201483333Y-96345295D02*
X201483333Y-96488152D01*
X201483333Y-96488152D02*
X201435714Y-96583390D01*
X201435714Y-96583390D02*
X201388095Y-96631009D01*
X201388095Y-96631009D02*
X201292857Y-96678628D01*
X201292857Y-96678628D02*
X200911905Y-96678628D01*
X202340476Y-96488152D02*
X202340476Y-97154819D01*
X202102381Y-96107200D02*
X201864286Y-96821485D01*
X201864286Y-96821485D02*
X202483333Y-96821485D01*
X115557142Y-71309580D02*
X115509523Y-71357200D01*
X115509523Y-71357200D02*
X115366666Y-71404819D01*
X115366666Y-71404819D02*
X115271428Y-71404819D01*
X115271428Y-71404819D02*
X115128571Y-71357200D01*
X115128571Y-71357200D02*
X115033333Y-71261961D01*
X115033333Y-71261961D02*
X114985714Y-71166723D01*
X114985714Y-71166723D02*
X114938095Y-70976247D01*
X114938095Y-70976247D02*
X114938095Y-70833390D01*
X114938095Y-70833390D02*
X114985714Y-70642914D01*
X114985714Y-70642914D02*
X115033333Y-70547676D01*
X115033333Y-70547676D02*
X115128571Y-70452438D01*
X115128571Y-70452438D02*
X115271428Y-70404819D01*
X115271428Y-70404819D02*
X115366666Y-70404819D01*
X115366666Y-70404819D02*
X115509523Y-70452438D01*
X115509523Y-70452438D02*
X115557142Y-70500057D01*
X116509523Y-71404819D02*
X115938095Y-71404819D01*
X116223809Y-71404819D02*
X116223809Y-70404819D01*
X116223809Y-70404819D02*
X116128571Y-70547676D01*
X116128571Y-70547676D02*
X116033333Y-70642914D01*
X116033333Y-70642914D02*
X115938095Y-70690533D01*
X117461904Y-71404819D02*
X116890476Y-71404819D01*
X117176190Y-71404819D02*
X117176190Y-70404819D01*
X117176190Y-70404819D02*
X117080952Y-70547676D01*
X117080952Y-70547676D02*
X116985714Y-70642914D01*
X116985714Y-70642914D02*
X116890476Y-70690533D01*
X151154819Y-96716666D02*
X150678628Y-97049999D01*
X151154819Y-97288094D02*
X150154819Y-97288094D01*
X150154819Y-97288094D02*
X150154819Y-96907142D01*
X150154819Y-96907142D02*
X150202438Y-96811904D01*
X150202438Y-96811904D02*
X150250057Y-96764285D01*
X150250057Y-96764285D02*
X150345295Y-96716666D01*
X150345295Y-96716666D02*
X150488152Y-96716666D01*
X150488152Y-96716666D02*
X150583390Y-96764285D01*
X150583390Y-96764285D02*
X150631009Y-96811904D01*
X150631009Y-96811904D02*
X150678628Y-96907142D01*
X150678628Y-96907142D02*
X150678628Y-97288094D01*
X150154819Y-95859523D02*
X150154819Y-96049999D01*
X150154819Y-96049999D02*
X150202438Y-96145237D01*
X150202438Y-96145237D02*
X150250057Y-96192856D01*
X150250057Y-96192856D02*
X150392914Y-96288094D01*
X150392914Y-96288094D02*
X150583390Y-96335713D01*
X150583390Y-96335713D02*
X150964342Y-96335713D01*
X150964342Y-96335713D02*
X151059580Y-96288094D01*
X151059580Y-96288094D02*
X151107200Y-96240475D01*
X151107200Y-96240475D02*
X151154819Y-96145237D01*
X151154819Y-96145237D02*
X151154819Y-95954761D01*
X151154819Y-95954761D02*
X151107200Y-95859523D01*
X151107200Y-95859523D02*
X151059580Y-95811904D01*
X151059580Y-95811904D02*
X150964342Y-95764285D01*
X150964342Y-95764285D02*
X150726247Y-95764285D01*
X150726247Y-95764285D02*
X150631009Y-95811904D01*
X150631009Y-95811904D02*
X150583390Y-95859523D01*
X150583390Y-95859523D02*
X150535771Y-95954761D01*
X150535771Y-95954761D02*
X150535771Y-96145237D01*
X150535771Y-96145237D02*
X150583390Y-96240475D01*
X150583390Y-96240475D02*
X150631009Y-96288094D01*
X150631009Y-96288094D02*
X150726247Y-96335713D01*
X108359580Y-102216666D02*
X108407200Y-102264285D01*
X108407200Y-102264285D02*
X108454819Y-102407142D01*
X108454819Y-102407142D02*
X108454819Y-102502380D01*
X108454819Y-102502380D02*
X108407200Y-102645237D01*
X108407200Y-102645237D02*
X108311961Y-102740475D01*
X108311961Y-102740475D02*
X108216723Y-102788094D01*
X108216723Y-102788094D02*
X108026247Y-102835713D01*
X108026247Y-102835713D02*
X107883390Y-102835713D01*
X107883390Y-102835713D02*
X107692914Y-102788094D01*
X107692914Y-102788094D02*
X107597676Y-102740475D01*
X107597676Y-102740475D02*
X107502438Y-102645237D01*
X107502438Y-102645237D02*
X107454819Y-102502380D01*
X107454819Y-102502380D02*
X107454819Y-102407142D01*
X107454819Y-102407142D02*
X107502438Y-102264285D01*
X107502438Y-102264285D02*
X107550057Y-102216666D01*
X107454819Y-101883332D02*
X107454819Y-101264285D01*
X107454819Y-101264285D02*
X107835771Y-101597618D01*
X107835771Y-101597618D02*
X107835771Y-101454761D01*
X107835771Y-101454761D02*
X107883390Y-101359523D01*
X107883390Y-101359523D02*
X107931009Y-101311904D01*
X107931009Y-101311904D02*
X108026247Y-101264285D01*
X108026247Y-101264285D02*
X108264342Y-101264285D01*
X108264342Y-101264285D02*
X108359580Y-101311904D01*
X108359580Y-101311904D02*
X108407200Y-101359523D01*
X108407200Y-101359523D02*
X108454819Y-101454761D01*
X108454819Y-101454761D02*
X108454819Y-101740475D01*
X108454819Y-101740475D02*
X108407200Y-101835713D01*
X108407200Y-101835713D02*
X108359580Y-101883332D01*
%TO.C,IC2*%
D12*
X168600000Y-99300000D02*
G75*
G02*
X168350000Y-99300000I-125000J0D01*
G01*
X168350000Y-99300000D02*
G75*
G02*
X168600000Y-99300000I125000J0D01*
G01*
D13*
X176350000Y-105950000D02*
X170050000Y-105950000D01*
X176350000Y-99650000D02*
X176350000Y-105950000D01*
X170050000Y-105950000D02*
X170050000Y-99650000D01*
X170050000Y-99650000D02*
X176350000Y-99650000D01*
%TO.C,SW1*%
D14*
X96800000Y-82300000D02*
X97300000Y-82300000D01*
X96800000Y-82800000D02*
X96800000Y-82300000D01*
X97300000Y-83550000D02*
X97300000Y-85550000D01*
X98050000Y-82050000D02*
X101550000Y-82050000D01*
X98050000Y-87050000D02*
X101550000Y-87050000D01*
X102300000Y-83550000D02*
X102300000Y-85550000D01*
%TO.C,R3*%
X98350000Y-96500000D02*
X99950000Y-96500000D01*
X99950000Y-97900000D02*
X98350000Y-97900000D01*
%TO.C,J2*%
D15*
X184800000Y-99700000D02*
X186200000Y-99700000D01*
X184800000Y-101000000D02*
X184800000Y-99700000D01*
X184800000Y-105000000D02*
X184800000Y-106300000D01*
X184800000Y-106300000D02*
X186200000Y-106300000D01*
X188200000Y-101000000D02*
X188200000Y-104900000D01*
X184300000Y-105000000D02*
X184500000Y-105200000D01*
X184100000Y-105200000D01*
X184300000Y-105000000D01*
G36*
X184500000Y-105200000D02*
G01*
X184100000Y-105200000D01*
X184300000Y-105000000D01*
X184500000Y-105200000D01*
G37*
%TO.C,J4*%
D14*
X174390000Y-70390000D02*
X174390000Y-71640000D01*
X174690000Y-70690000D02*
X174690000Y-77310000D01*
X174690000Y-74000000D02*
X175700000Y-74000000D01*
X174690000Y-77310000D02*
X227410000Y-77310000D01*
X175640000Y-70390000D02*
X174390000Y-70390000D01*
X175700000Y-72300000D02*
X226400000Y-72300000D01*
X175700000Y-74600000D02*
X175700000Y-72300000D01*
X176990000Y-70690000D02*
X174690000Y-70690000D01*
X176990000Y-71690000D02*
X176990000Y-70690000D01*
X196250000Y-70690000D02*
X196250000Y-71690000D01*
X196250000Y-71690000D02*
X176990000Y-71690000D01*
X198350000Y-70690000D02*
X196250000Y-70690000D01*
X198350000Y-71690000D02*
X198350000Y-70690000D01*
X200250000Y-71090000D02*
X200250000Y-71690000D01*
X200250000Y-71690000D02*
X198350000Y-71690000D01*
X201850000Y-71090000D02*
X200250000Y-71090000D01*
X201850000Y-71690000D02*
X201850000Y-71090000D01*
X203750000Y-70690000D02*
X203750000Y-71690000D01*
X203750000Y-71690000D02*
X201850000Y-71690000D01*
X205850000Y-70690000D02*
X203750000Y-70690000D01*
X205850000Y-71690000D02*
X205850000Y-70690000D01*
X225110000Y-70690000D02*
X225110000Y-71690000D01*
X225110000Y-71690000D02*
X205850000Y-71690000D01*
X226400000Y-72300000D02*
X226400000Y-76600000D01*
X226400000Y-76600000D02*
X175700000Y-76600000D01*
X227410000Y-70690000D02*
X225110000Y-70690000D01*
X227410000Y-74000000D02*
X226400000Y-74000000D01*
X227410000Y-77310000D02*
X227410000Y-70690000D01*
%TO.C,R7*%
X101000000Y-117950000D02*
X102600000Y-117950000D01*
X102600000Y-119350000D02*
X101000000Y-119350000D01*
%TO.C,C13*%
X154800000Y-102250000D02*
X154800000Y-100650000D01*
X156200000Y-100650000D02*
X156200000Y-102250000D01*
%TO.C,C9*%
X115800000Y-79650000D02*
X117400000Y-79650000D01*
X117400000Y-81050000D02*
X115800000Y-81050000D01*
%TO.C,J3*%
X122690000Y-120490000D02*
X122690000Y-121740000D01*
X122990000Y-120790000D02*
X122990000Y-127410000D01*
X122990000Y-124100000D02*
X124000000Y-124100000D01*
X122990000Y-127410000D02*
X175710000Y-127410000D01*
X123940000Y-120490000D02*
X122690000Y-120490000D01*
X124000000Y-122400000D02*
X174700000Y-122400000D01*
X124000000Y-124700000D02*
X124000000Y-122400000D01*
X125290000Y-120790000D02*
X122990000Y-120790000D01*
X125290000Y-121790000D02*
X125290000Y-120790000D01*
X144550000Y-120790000D02*
X144550000Y-121790000D01*
X144550000Y-121790000D02*
X125290000Y-121790000D01*
X146650000Y-120790000D02*
X144550000Y-120790000D01*
X146650000Y-121790000D02*
X146650000Y-120790000D01*
X148550000Y-121190000D02*
X148550000Y-121790000D01*
X148550000Y-121790000D02*
X146650000Y-121790000D01*
X150150000Y-121190000D02*
X148550000Y-121190000D01*
X150150000Y-121790000D02*
X150150000Y-121190000D01*
X152050000Y-120790000D02*
X152050000Y-121790000D01*
X152050000Y-121790000D02*
X150150000Y-121790000D01*
X154150000Y-120790000D02*
X152050000Y-120790000D01*
X154150000Y-121790000D02*
X154150000Y-120790000D01*
X173410000Y-120790000D02*
X173410000Y-121790000D01*
X173410000Y-121790000D02*
X154150000Y-121790000D01*
X174700000Y-122400000D02*
X174700000Y-126700000D01*
X174700000Y-126700000D02*
X124000000Y-126700000D01*
X175710000Y-120790000D02*
X173410000Y-120790000D01*
X175710000Y-124100000D02*
X174700000Y-124100000D01*
X175710000Y-127410000D02*
X175710000Y-120790000D01*
%TO.C,C10*%
X115700000Y-73750000D02*
X117300000Y-73750000D01*
X117300000Y-75150000D02*
X115700000Y-75150000D01*
%TO.C,C1*%
X99150000Y-76650000D02*
X100750000Y-76650000D01*
X100750000Y-78050000D02*
X99150000Y-78050000D01*
%TO.C,C14*%
X154700000Y-108300000D02*
X154700000Y-106700000D01*
X156100000Y-106700000D02*
X156100000Y-108300000D01*
%TO.C,R1*%
X107350000Y-76750000D02*
X108950000Y-76750000D01*
X108950000Y-78150000D02*
X107350000Y-78150000D01*
%TO.C,P1*%
X103700000Y-123700000D02*
X104150000Y-123700000D01*
X103700000Y-125550000D02*
X103700000Y-123700000D01*
X103700000Y-128100000D02*
X103700000Y-127850000D01*
X105900000Y-123150000D02*
X105900000Y-123600000D01*
X105900000Y-123150000D02*
X106350000Y-123150000D01*
X111500000Y-123700000D02*
X111050000Y-123700000D01*
X111500000Y-125550000D02*
X111500000Y-123700000D01*
X111500000Y-128100000D02*
X111500000Y-127850000D01*
%TO.C,C8*%
X115750000Y-85650000D02*
X117350000Y-85650000D01*
X117350000Y-87050000D02*
X115750000Y-87050000D01*
%TO.C,C2*%
X112800000Y-103600000D02*
X112800000Y-102000000D01*
X114200000Y-102000000D02*
X114200000Y-103600000D01*
%TO.C,C15*%
X157000000Y-114700000D02*
X157000000Y-113100000D01*
X158400000Y-113100000D02*
X158400000Y-114700000D01*
%TO.C,R2*%
X99000000Y-106500000D02*
X100600000Y-106500000D01*
X100600000Y-107900000D02*
X99000000Y-107900000D01*
%TO.C,Y2*%
X159750000Y-106575000D02*
X159750000Y-112325000D01*
X159750000Y-112325000D02*
X163650000Y-112325000D01*
X163650000Y-112325000D02*
X163650000Y-106600000D01*
%TO.C,C4*%
X120450000Y-106900000D02*
X122050000Y-106900000D01*
X122050000Y-108300000D02*
X120450000Y-108300000D01*
%TO.C,C7*%
X185850000Y-109800000D02*
X187450000Y-109800000D01*
X187450000Y-111200000D02*
X185850000Y-111200000D01*
%TO.C,R8*%
X113350000Y-117650000D02*
X114950000Y-117650000D01*
X114950000Y-119050000D02*
X113350000Y-119050000D01*
%TO.C,C6*%
X121850000Y-101400000D02*
X123450000Y-101400000D01*
X123450000Y-102800000D02*
X121850000Y-102800000D01*
%TO.C,IC1*%
D13*
X115650000Y-101175000D02*
X116850000Y-101175000D01*
X117200000Y-101288000D02*
X117300000Y-101288000D01*
X117200000Y-103312000D02*
X117200000Y-101288000D01*
X117300000Y-101288000D02*
X117300000Y-103312000D01*
X117300000Y-103312000D02*
X117200000Y-103312000D01*
%TO.C,D1*%
D14*
X192550000Y-97100000D02*
X194150000Y-97100000D01*
X192550000Y-98300000D02*
X194150000Y-98300000D01*
%TO.C,Y1*%
X160050000Y-98675000D02*
X160050000Y-104425000D01*
X160050000Y-104425000D02*
X163950000Y-104425000D01*
X163950000Y-104425000D02*
X163950000Y-98700000D01*
%TO.C,C5*%
X115650000Y-91150000D02*
X117250000Y-91150000D01*
X117250000Y-92550000D02*
X115650000Y-92550000D01*
%TO.C,C12*%
X156800000Y-96850000D02*
X156800000Y-95250000D01*
X158200000Y-95250000D02*
X158200000Y-96850000D01*
%TO.C,R5*%
X201050000Y-103800000D02*
X202650000Y-103800000D01*
X202650000Y-105200000D02*
X201050000Y-105200000D01*
%TO.C,J1*%
D15*
X77300000Y-113800000D02*
X77300000Y-113800000D01*
X77400000Y-113800000D02*
X77400000Y-113800000D01*
D13*
X77800000Y-72200000D02*
X86200000Y-72200000D01*
X77800000Y-117900000D02*
X77800000Y-72200000D01*
X86200000Y-72200000D02*
X86200000Y-117900000D01*
X86200000Y-117900000D02*
X77800000Y-117900000D01*
D15*
X77300000Y-113800000D02*
G75*
G02*
X77400000Y-113800000I50000J0D01*
G01*
X77400000Y-113800000D02*
G75*
G02*
X77300000Y-113800000I-50000J0D01*
G01*
%TO.C,D2*%
D14*
X192550000Y-104200000D02*
X194150000Y-104200000D01*
X192550000Y-105400000D02*
X194150000Y-105400000D01*
%TO.C,R9*%
X106800000Y-117950000D02*
X108400000Y-117950000D01*
X108400000Y-119350000D02*
X106800000Y-119350000D01*
%TO.C,R4*%
X200850000Y-97500000D02*
X202450000Y-97500000D01*
X202450000Y-98900000D02*
X200850000Y-98900000D01*
%TO.C,C11*%
X116300000Y-68750000D02*
X117900000Y-68750000D01*
X117900000Y-70150000D02*
X116300000Y-70150000D01*
%TO.C,R6*%
X151500000Y-97350000D02*
X151500000Y-95750000D01*
X152900000Y-95750000D02*
X152900000Y-97350000D01*
%TO.C,C3*%
X108800000Y-103750000D02*
X108800000Y-102150000D01*
X110200000Y-102150000D02*
X110200000Y-103750000D01*
%TD*%
M02*
