%TF.GenerationSoftware,KiCad,Pcbnew,10.0.3*%
%TF.CreationDate,2026-07-01T12:34:20+05:30*%
%TF.ProjectId,STM32f103c8t6_Bluepill,53544d33-3266-4313-9033-633874365f42,rev?*%
%TF.SameCoordinates,Original*%
%TF.FileFunction,Soldermask,Top*%
%TF.FilePolarity,Negative*%
%FSLAX46Y46*%
G04 Gerber Fmt 4.6, Leading zero omitted, Abs format (unit mm)*
G04 Created by KiCad (PCBNEW 10.0.3) date 2026-07-01 12:34:20*
%MOMM*%
%LPD*%
G01*
G04 APERTURE LIST*
G04 Aperture macros list*
%AMRoundRect*
0 Rectangle with rounded corners*
0 $1 Rounding radius*
0 $2 $3 $4 $5 $6 $7 $8 $9 X,Y pos of 4 corners*
0 Add a 4 corners polygon primitive as box body*
4,1,4,$2,$3,$4,$5,$6,$7,$8,$9,$2,$3,0*
0 Add four circle primitives for the rounded corners*
1,1,$1+$1,$2,$3*
1,1,$1+$1,$4,$5*
1,1,$1+$1,$6,$7*
1,1,$1+$1,$8,$9*
0 Add four rect primitives between the rounded corners*
20,1,$1+$1,$2,$3,$4,$5,0*
20,1,$1+$1,$4,$5,$6,$7,0*
20,1,$1+$1,$6,$7,$8,$9,0*
20,1,$1+$1,$8,$9,$2,$3,0*%
G04 Aperture macros list end*
%ADD10R,0.300000X1.475000*%
%ADD11R,1.475000X0.300000*%
%ADD12R,1.000000X0.500000*%
%ADD13R,0.800000X0.800000*%
%ADD14R,1.800000X1.200000*%
%ADD15R,1.550000X0.600000*%
%ADD16C,1.250000*%
%ADD17RoundRect,0.250000X-0.600000X-0.725000X0.600000X-0.725000X0.600000X0.725000X-0.600000X0.725000X0*%
%ADD18O,1.700000X1.950000*%
%ADD19RoundRect,0.100000X-0.100000X-0.575000X0.100000X-0.575000X0.100000X0.575000X-0.100000X0.575000X0*%
%ADD20O,1.200000X1.900000*%
%ADD21R,1.200000X1.900000*%
%ADD22C,1.450000*%
%ADD23RoundRect,0.250000X-0.500000X-0.700000X0.500000X-0.700000X0.500000X0.700000X-0.500000X0.700000X0*%
%ADD24R,2.400000X2.000000*%
%ADD25R,1.200000X0.450000*%
%ADD26R,2.100000X2.100000*%
%ADD27C,2.100000*%
G04 APERTURE END LIST*
D10*
%TO.C,IC2*%
X170450000Y-98562000D03*
X170950000Y-98562000D03*
X171450000Y-98562000D03*
X171950000Y-98562000D03*
X172450000Y-98562000D03*
X172950000Y-98562000D03*
X173450000Y-98562000D03*
X173950000Y-98562000D03*
X174450000Y-98562000D03*
X174950000Y-98562000D03*
X175450000Y-98562000D03*
X175950000Y-98562000D03*
D11*
X177438000Y-100050000D03*
X177438000Y-100550000D03*
X177438000Y-101050000D03*
X177438000Y-101550000D03*
X177438000Y-102050000D03*
X177438000Y-102550000D03*
X177438000Y-103050000D03*
X177438000Y-103550000D03*
X177438000Y-104050000D03*
X177438000Y-104550000D03*
X177438000Y-105050000D03*
X177438000Y-105550000D03*
D10*
X175950000Y-107038000D03*
X175450000Y-107038000D03*
X174950000Y-107038000D03*
X174450000Y-107038000D03*
X173950000Y-107038000D03*
X173450000Y-107038000D03*
X172950000Y-107038000D03*
X172450000Y-107038000D03*
X171950000Y-107038000D03*
X171450000Y-107038000D03*
X170950000Y-107038000D03*
X170450000Y-107038000D03*
D11*
X168962000Y-105550000D03*
X168962000Y-105050000D03*
X168962000Y-104550000D03*
X168962000Y-104050000D03*
X168962000Y-103550000D03*
X168962000Y-103050000D03*
X168962000Y-102550000D03*
X168962000Y-102050000D03*
X168962000Y-101550000D03*
X168962000Y-101050000D03*
X168962000Y-100550000D03*
X168962000Y-100050000D03*
%TD*%
D12*
%TO.C,SW1*%
X97550000Y-82800000D03*
X102050000Y-82800000D03*
X97550000Y-86300000D03*
X102050000Y-86300000D03*
%TD*%
D13*
%TO.C,R3*%
X98400000Y-97200000D03*
X99900000Y-97200000D03*
%TD*%
D14*
%TO.C,J2*%
X187300000Y-100200000D03*
X187300000Y-105800000D03*
D15*
X184775000Y-104500000D03*
X184775000Y-103500000D03*
X184775000Y-102500000D03*
X184775000Y-101500000D03*
%TD*%
D16*
%TO.C,J4*%
X175700000Y-75600000D03*
D17*
X177300000Y-74000000D03*
D18*
X179800000Y-74000000D03*
X182300000Y-74000000D03*
X184800000Y-74000000D03*
X187300000Y-74000000D03*
X189800000Y-74000000D03*
X192300000Y-74000000D03*
X194800000Y-74000000D03*
X197300000Y-74000000D03*
X199800000Y-74000000D03*
X202300000Y-74000000D03*
X204800000Y-74000000D03*
X207300000Y-74000000D03*
X209800000Y-74000000D03*
X212300000Y-74000000D03*
X214800000Y-74000000D03*
X217300000Y-74000000D03*
X219800000Y-74000000D03*
X222300000Y-74000000D03*
X224800000Y-74000000D03*
%TD*%
D13*
%TO.C,R7*%
X102550000Y-118650000D03*
X101050000Y-118650000D03*
%TD*%
%TO.C,C13*%
X155500000Y-102200000D03*
X155500000Y-100700000D03*
%TD*%
%TO.C,C9*%
X117350000Y-80350000D03*
X115850000Y-80350000D03*
%TD*%
D16*
%TO.C,J3*%
X124000000Y-125700000D03*
D17*
X125600000Y-124100000D03*
D18*
X128100000Y-124100000D03*
X130600000Y-124100000D03*
X133100000Y-124100000D03*
X135600000Y-124100000D03*
X138100000Y-124100000D03*
X140600000Y-124100000D03*
X143100000Y-124100000D03*
X145600000Y-124100000D03*
X148100000Y-124100000D03*
X150600000Y-124100000D03*
X153100000Y-124100000D03*
X155600000Y-124100000D03*
X158100000Y-124100000D03*
X160600000Y-124100000D03*
X163100000Y-124100000D03*
X165600000Y-124100000D03*
X168100000Y-124100000D03*
X170600000Y-124100000D03*
X173100000Y-124100000D03*
%TD*%
D13*
%TO.C,C10*%
X117250000Y-74450000D03*
X115750000Y-74450000D03*
%TD*%
%TO.C,C1*%
X99200000Y-77350000D03*
X100700000Y-77350000D03*
%TD*%
%TO.C,C14*%
X155400000Y-106750000D03*
X155400000Y-108250000D03*
%TD*%
%TO.C,R1*%
X107400000Y-77450000D03*
X108900000Y-77450000D03*
%TD*%
D19*
%TO.C,P1*%
X106300000Y-124000000D03*
X106950000Y-124000000D03*
X107600000Y-124000000D03*
X108250000Y-124000000D03*
X108900000Y-124000000D03*
D20*
X104100000Y-126700000D03*
D21*
X104700000Y-126700000D03*
D22*
X105100000Y-124000000D03*
D23*
X106600000Y-126700000D03*
X108600000Y-126700000D03*
D22*
X110100000Y-124000000D03*
D21*
X110500000Y-126700000D03*
D20*
X111100000Y-126700000D03*
%TD*%
D13*
%TO.C,C8*%
X117300000Y-86350000D03*
X115800000Y-86350000D03*
%TD*%
%TO.C,C2*%
X113500000Y-103550000D03*
X113500000Y-102050000D03*
%TD*%
%TO.C,C15*%
X157700000Y-113150000D03*
X157700000Y-114650000D03*
%TD*%
%TO.C,R2*%
X100550000Y-107200000D03*
X99050000Y-107200000D03*
%TD*%
D24*
%TO.C,Y2*%
X161700000Y-111100000D03*
X161700000Y-107100000D03*
%TD*%
D13*
%TO.C,C4*%
X122000000Y-107600000D03*
X120500000Y-107600000D03*
%TD*%
%TO.C,C7*%
X185900000Y-110500000D03*
X187400000Y-110500000D03*
%TD*%
%TO.C,R8*%
X114900000Y-118350000D03*
X113400000Y-118350000D03*
%TD*%
%TO.C,C6*%
X123400000Y-102100000D03*
X121900000Y-102100000D03*
%TD*%
D25*
%TO.C,IC1*%
X116250000Y-101650000D03*
X116250000Y-102300000D03*
X116250000Y-102950000D03*
X118250000Y-102950000D03*
X118250000Y-101650000D03*
%TD*%
D13*
%TO.C,D1*%
X192600000Y-97700000D03*
X194100000Y-97700000D03*
%TD*%
D24*
%TO.C,Y1*%
X162000000Y-103200000D03*
X162000000Y-99200000D03*
%TD*%
D13*
%TO.C,C5*%
X117200000Y-91850000D03*
X115700000Y-91850000D03*
%TD*%
%TO.C,C12*%
X157500000Y-96800000D03*
X157500000Y-95300000D03*
%TD*%
%TO.C,R5*%
X201100000Y-104500000D03*
X202600000Y-104500000D03*
%TD*%
D26*
%TO.C,J1*%
X82400000Y-113800000D03*
D27*
X82400000Y-106300000D03*
X82400000Y-98800000D03*
X82400000Y-91300000D03*
X82400000Y-83800000D03*
X82400000Y-76300000D03*
%TD*%
D13*
%TO.C,D2*%
X192600000Y-104800000D03*
X194100000Y-104800000D03*
%TD*%
%TO.C,R9*%
X106850000Y-118650000D03*
X108350000Y-118650000D03*
%TD*%
%TO.C,R4*%
X200900000Y-98200000D03*
X202400000Y-98200000D03*
%TD*%
%TO.C,C11*%
X117850000Y-69450000D03*
X116350000Y-69450000D03*
%TD*%
%TO.C,R6*%
X152200000Y-97300000D03*
X152200000Y-95800000D03*
%TD*%
%TO.C,C3*%
X109500000Y-103700000D03*
X109500000Y-102200000D03*
%TD*%
M02*
